<mxfile host="app.diagrams.net" modified="2021-01-07T16:49:22.109Z" agent="5.0 (Macintosh; Intel Mac OS X 10_15_7) AppleWebKit/537.36 (KHTML, like Gecko) Chrome/87.0.4280.88 Safari/537.36" etag="4ZPVJsdwcS1HPT7U-R-X" version="14.1.2" type="github">
  <diagram id="IKzSIhJVedQTDQjLuv1r" name="Page-1">
    <mxGraphModel dx="1110" dy="1163" grid="1" gridSize="10" guides="1" tooltips="1" connect="1" arrows="1" fold="1" page="1" pageScale="1" pageWidth="1169" pageHeight="827" background="none" math="0" shadow="0">
      <root>
        <mxCell id="0" />
        <mxCell id="1" parent="0" />
        <mxCell id="Bp--dliPpfu11ODIHcIK-1" value="&lt;font style=&quot;font-size: 20px&quot;&gt;Linked List&lt;/font&gt;" style="text;html=1;fillColor=none;align=center;verticalAlign=middle;whiteSpace=wrap;strokeColor=#000000;strokeWidth=3;" vertex="1" parent="1">
          <mxGeometry x="320" y="40" width="120" height="40" as="geometry" />
        </mxCell>
        <mxCell id="Bp--dliPpfu11ODIHcIK-2" value="&lt;font style=&quot;font-size: 20px&quot;&gt;Doubly Linked List&lt;/font&gt;" style="text;html=1;fillColor=none;align=center;verticalAlign=middle;whiteSpace=wrap;strokeColor=#000000;strokeWidth=3;" vertex="1" parent="1">
          <mxGeometry x="280" y="240" width="200" height="40" as="geometry" />
        </mxCell>
        <mxCell id="Bp--dliPpfu11ODIHcIK-3" value="&lt;font style=&quot;font-size: 16px&quot;&gt;item&lt;/font&gt;" style="whiteSpace=wrap;html=1;strokeColor=#000000;strokeWidth=1;" vertex="1" parent="1">
          <mxGeometry x="80" y="120" width="70" height="40" as="geometry" />
        </mxCell>
        <mxCell id="Bp--dliPpfu11ODIHcIK-14" style="edgeStyle=orthogonalEdgeStyle;orthogonalLoop=1;jettySize=auto;html=1;exitX=1;exitY=0.5;exitDx=0;exitDy=0;entryX=0;entryY=0.5;entryDx=0;entryDy=0;" edge="1" parent="1" source="Bp--dliPpfu11ODIHcIK-7" target="Bp--dliPpfu11ODIHcIK-8">
          <mxGeometry relative="1" as="geometry" />
        </mxCell>
        <mxCell id="Bp--dliPpfu11ODIHcIK-7" value="&lt;font style=&quot;font-size: 16px&quot;&gt;next&lt;/font&gt;" style="whiteSpace=wrap;html=1;strokeColor=#000000;strokeWidth=1;" vertex="1" parent="1">
          <mxGeometry x="150" y="120" width="50" height="40" as="geometry" />
        </mxCell>
        <mxCell id="Bp--dliPpfu11ODIHcIK-8" value="&lt;span style=&quot;font-size: 16px&quot;&gt;item&lt;/span&gt;" style="whiteSpace=wrap;html=1;strokeColor=#000000;strokeWidth=1;" vertex="1" parent="1">
          <mxGeometry x="240" y="120" width="70" height="40" as="geometry" />
        </mxCell>
        <mxCell id="Bp--dliPpfu11ODIHcIK-16" style="edgeStyle=orthogonalEdgeStyle;orthogonalLoop=1;jettySize=auto;html=1;exitX=1;exitY=0.5;exitDx=0;exitDy=0;entryX=0;entryY=0.5;entryDx=0;entryDy=0;" edge="1" parent="1" source="Bp--dliPpfu11ODIHcIK-9" target="Bp--dliPpfu11ODIHcIK-10">
          <mxGeometry relative="1" as="geometry" />
        </mxCell>
        <mxCell id="Bp--dliPpfu11ODIHcIK-9" value="&lt;font style=&quot;font-size: 16px&quot;&gt;next&lt;/font&gt;" style="whiteSpace=wrap;html=1;strokeColor=#000000;strokeWidth=1;" vertex="1" parent="1">
          <mxGeometry x="310" y="120" width="50" height="40" as="geometry" />
        </mxCell>
        <mxCell id="Bp--dliPpfu11ODIHcIK-10" value="&lt;span style=&quot;font-size: 16px&quot;&gt;item&lt;/span&gt;" style="whiteSpace=wrap;html=1;strokeColor=#000000;strokeWidth=1;" vertex="1" parent="1">
          <mxGeometry x="400" y="120" width="70" height="40" as="geometry" />
        </mxCell>
        <mxCell id="Bp--dliPpfu11ODIHcIK-17" style="edgeStyle=orthogonalEdgeStyle;orthogonalLoop=1;jettySize=auto;html=1;exitX=1;exitY=0.5;exitDx=0;exitDy=0;entryX=0;entryY=0.5;entryDx=0;entryDy=0;" edge="1" parent="1" source="Bp--dliPpfu11ODIHcIK-11" target="Bp--dliPpfu11ODIHcIK-12">
          <mxGeometry relative="1" as="geometry" />
        </mxCell>
        <mxCell id="Bp--dliPpfu11ODIHcIK-11" value="&lt;font style=&quot;font-size: 16px&quot;&gt;next&lt;/font&gt;" style="whiteSpace=wrap;html=1;strokeColor=#000000;strokeWidth=1;" vertex="1" parent="1">
          <mxGeometry x="470" y="120" width="50" height="40" as="geometry" />
        </mxCell>
        <mxCell id="Bp--dliPpfu11ODIHcIK-12" value="&lt;span style=&quot;font-size: 16px&quot;&gt;item&lt;/span&gt;" style="whiteSpace=wrap;html=1;strokeColor=#000000;strokeWidth=1;" vertex="1" parent="1">
          <mxGeometry x="560" y="120" width="70" height="40" as="geometry" />
        </mxCell>
        <mxCell id="Bp--dliPpfu11ODIHcIK-18" style="edgeStyle=orthogonalEdgeStyle;orthogonalLoop=1;jettySize=auto;html=1;exitX=1;exitY=0.5;exitDx=0;exitDy=0;" edge="1" parent="1" source="Bp--dliPpfu11ODIHcIK-13" target="Bp--dliPpfu11ODIHcIK-19">
          <mxGeometry relative="1" as="geometry">
            <mxPoint x="720" y="140" as="targetPoint" />
          </mxGeometry>
        </mxCell>
        <mxCell id="Bp--dliPpfu11ODIHcIK-13" value="&lt;font style=&quot;font-size: 16px&quot;&gt;next&lt;/font&gt;" style="whiteSpace=wrap;html=1;strokeColor=#000000;strokeWidth=1;" vertex="1" parent="1">
          <mxGeometry x="630" y="120" width="50" height="40" as="geometry" />
        </mxCell>
        <mxCell id="Bp--dliPpfu11ODIHcIK-19" value="&lt;font style=&quot;font-size: 16px&quot;&gt;Null&lt;/font&gt;" style="text;html=1;fillColor=none;align=center;verticalAlign=middle;whiteSpace=wrap;strokeColor=#000000;dashed=1;" vertex="1" parent="1">
          <mxGeometry x="700" y="120" width="50" height="40" as="geometry" />
        </mxCell>
        <mxCell id="Bp--dliPpfu11ODIHcIK-58" style="edgeStyle=orthogonalEdgeStyle;rounded=0;orthogonalLoop=1;jettySize=auto;html=1;exitX=0.5;exitY=1;exitDx=0;exitDy=0;entryX=1;entryY=0;entryDx=0;entryDy=0;" edge="1" parent="1" source="Bp--dliPpfu11ODIHcIK-20" target="Bp--dliPpfu11ODIHcIK-3">
          <mxGeometry relative="1" as="geometry" />
        </mxCell>
        <mxCell id="Bp--dliPpfu11ODIHcIK-20" value="&lt;font style=&quot;font-size: 16px&quot;&gt;First&lt;/font&gt;" style="text;html=1;fillColor=none;align=center;verticalAlign=middle;whiteSpace=wrap;strokeColor=#000000;dashed=1;strokeWidth=2;" vertex="1" parent="1">
          <mxGeometry x="120" y="60" width="50" height="30" as="geometry" />
        </mxCell>
        <mxCell id="Bp--dliPpfu11ODIHcIK-51" style="edgeStyle=orthogonalEdgeStyle;orthogonalLoop=1;jettySize=auto;html=1;exitX=0;exitY=0.5;exitDx=0;exitDy=0;entryX=1;entryY=0.5;entryDx=0;entryDy=0;" edge="1" parent="1" source="Bp--dliPpfu11ODIHcIK-27" target="Bp--dliPpfu11ODIHcIK-40">
          <mxGeometry relative="1" as="geometry" />
        </mxCell>
        <mxCell id="Bp--dliPpfu11ODIHcIK-27" value="&lt;font style=&quot;font-size: 14px&quot;&gt;prev&lt;/font&gt;" style="whiteSpace=wrap;html=1;strokeColor=#000000;strokeWidth=1;" vertex="1" parent="1">
          <mxGeometry x="80" y="320" width="40" height="40" as="geometry" />
        </mxCell>
        <mxCell id="Bp--dliPpfu11ODIHcIK-28" value="&lt;font style=&quot;font-size: 14px&quot;&gt;item&lt;/font&gt;" style="whiteSpace=wrap;html=1;strokeColor=#000000;strokeWidth=1;" vertex="1" parent="1">
          <mxGeometry x="120" y="320" width="40" height="40" as="geometry" />
        </mxCell>
        <mxCell id="Bp--dliPpfu11ODIHcIK-41" style="edgeStyle=orthogonalEdgeStyle;orthogonalLoop=1;jettySize=auto;html=1;exitX=1;exitY=0.75;exitDx=0;exitDy=0;entryX=0;entryY=0.75;entryDx=0;entryDy=0;" edge="1" parent="1" source="Bp--dliPpfu11ODIHcIK-29" target="Bp--dliPpfu11ODIHcIK-30">
          <mxGeometry relative="1" as="geometry" />
        </mxCell>
        <mxCell id="Bp--dliPpfu11ODIHcIK-29" value="&lt;font style=&quot;font-size: 14px&quot;&gt;next&lt;/font&gt;" style="whiteSpace=wrap;html=1;strokeColor=#000000;strokeWidth=1;" vertex="1" parent="1">
          <mxGeometry x="160" y="320" width="40" height="40" as="geometry" />
        </mxCell>
        <mxCell id="Bp--dliPpfu11ODIHcIK-42" style="edgeStyle=orthogonalEdgeStyle;orthogonalLoop=1;jettySize=auto;html=1;exitX=0;exitY=0.25;exitDx=0;exitDy=0;entryX=1;entryY=0.25;entryDx=0;entryDy=0;" edge="1" parent="1" source="Bp--dliPpfu11ODIHcIK-30" target="Bp--dliPpfu11ODIHcIK-29">
          <mxGeometry relative="1" as="geometry" />
        </mxCell>
        <mxCell id="Bp--dliPpfu11ODIHcIK-30" value="&lt;font style=&quot;font-size: 14px&quot;&gt;prev&lt;/font&gt;" style="whiteSpace=wrap;html=1;strokeColor=#000000;strokeWidth=1;" vertex="1" parent="1">
          <mxGeometry x="240" y="320" width="40" height="40" as="geometry" />
        </mxCell>
        <mxCell id="Bp--dliPpfu11ODIHcIK-31" value="&lt;span style=&quot;font-size: 14px&quot;&gt;item&lt;/span&gt;" style="whiteSpace=wrap;html=1;strokeColor=#000000;strokeWidth=1;" vertex="1" parent="1">
          <mxGeometry x="280" y="320" width="40" height="40" as="geometry" />
        </mxCell>
        <mxCell id="Bp--dliPpfu11ODIHcIK-43" style="edgeStyle=orthogonalEdgeStyle;orthogonalLoop=1;jettySize=auto;html=1;exitX=1;exitY=0.75;exitDx=0;exitDy=0;entryX=0;entryY=0.75;entryDx=0;entryDy=0;" edge="1" parent="1" source="Bp--dliPpfu11ODIHcIK-32" target="Bp--dliPpfu11ODIHcIK-33">
          <mxGeometry relative="1" as="geometry" />
        </mxCell>
        <mxCell id="Bp--dliPpfu11ODIHcIK-32" value="&lt;font style=&quot;font-size: 14px&quot;&gt;next&lt;/font&gt;" style="whiteSpace=wrap;html=1;strokeColor=#000000;strokeWidth=1;" vertex="1" parent="1">
          <mxGeometry x="320" y="320" width="40" height="40" as="geometry" />
        </mxCell>
        <mxCell id="Bp--dliPpfu11ODIHcIK-44" style="edgeStyle=orthogonalEdgeStyle;orthogonalLoop=1;jettySize=auto;html=1;exitX=0;exitY=0.25;exitDx=0;exitDy=0;entryX=1;entryY=0.25;entryDx=0;entryDy=0;" edge="1" parent="1" source="Bp--dliPpfu11ODIHcIK-33" target="Bp--dliPpfu11ODIHcIK-32">
          <mxGeometry relative="1" as="geometry" />
        </mxCell>
        <mxCell id="Bp--dliPpfu11ODIHcIK-33" value="&lt;font style=&quot;font-size: 14px&quot;&gt;prev&lt;/font&gt;" style="whiteSpace=wrap;html=1;strokeColor=#000000;strokeWidth=1;" vertex="1" parent="1">
          <mxGeometry x="400" y="320" width="40" height="40" as="geometry" />
        </mxCell>
        <mxCell id="Bp--dliPpfu11ODIHcIK-34" value="&lt;span style=&quot;font-size: 14px&quot;&gt;item&lt;/span&gt;" style="whiteSpace=wrap;html=1;strokeColor=#000000;strokeWidth=1;" vertex="1" parent="1">
          <mxGeometry x="440" y="320" width="40" height="40" as="geometry" />
        </mxCell>
        <mxCell id="Bp--dliPpfu11ODIHcIK-45" style="edgeStyle=orthogonalEdgeStyle;orthogonalLoop=1;jettySize=auto;html=1;exitX=1;exitY=0.75;exitDx=0;exitDy=0;entryX=0;entryY=0.75;entryDx=0;entryDy=0;" edge="1" parent="1" source="Bp--dliPpfu11ODIHcIK-35" target="Bp--dliPpfu11ODIHcIK-36">
          <mxGeometry relative="1" as="geometry" />
        </mxCell>
        <mxCell id="Bp--dliPpfu11ODIHcIK-35" value="&lt;font style=&quot;font-size: 14px&quot;&gt;next&lt;/font&gt;" style="whiteSpace=wrap;html=1;strokeColor=#000000;strokeWidth=1;" vertex="1" parent="1">
          <mxGeometry x="480" y="320" width="40" height="40" as="geometry" />
        </mxCell>
        <mxCell id="Bp--dliPpfu11ODIHcIK-46" style="edgeStyle=orthogonalEdgeStyle;orthogonalLoop=1;jettySize=auto;html=1;exitX=0;exitY=0.25;exitDx=0;exitDy=0;entryX=1;entryY=0.25;entryDx=0;entryDy=0;" edge="1" parent="1" source="Bp--dliPpfu11ODIHcIK-36" target="Bp--dliPpfu11ODIHcIK-35">
          <mxGeometry relative="1" as="geometry" />
        </mxCell>
        <mxCell id="Bp--dliPpfu11ODIHcIK-36" value="&lt;font style=&quot;font-size: 14px&quot;&gt;prev&lt;/font&gt;" style="whiteSpace=wrap;html=1;strokeColor=#000000;strokeWidth=1;" vertex="1" parent="1">
          <mxGeometry x="560" y="320" width="40" height="40" as="geometry" />
        </mxCell>
        <mxCell id="Bp--dliPpfu11ODIHcIK-37" value="&lt;span style=&quot;font-size: 14px&quot;&gt;item&lt;/span&gt;" style="whiteSpace=wrap;html=1;strokeColor=#000000;strokeWidth=1;" vertex="1" parent="1">
          <mxGeometry x="600" y="320" width="40" height="40" as="geometry" />
        </mxCell>
        <mxCell id="Bp--dliPpfu11ODIHcIK-49" style="edgeStyle=orthogonalEdgeStyle;orthogonalLoop=1;jettySize=auto;html=1;exitX=1;exitY=0.5;exitDx=0;exitDy=0;entryX=0;entryY=0.5;entryDx=0;entryDy=0;" edge="1" parent="1" source="Bp--dliPpfu11ODIHcIK-38" target="Bp--dliPpfu11ODIHcIK-48">
          <mxGeometry relative="1" as="geometry" />
        </mxCell>
        <mxCell id="Bp--dliPpfu11ODIHcIK-38" value="&lt;font style=&quot;font-size: 14px&quot;&gt;next&lt;/font&gt;" style="whiteSpace=wrap;html=1;strokeColor=#000000;strokeWidth=1;" vertex="1" parent="1">
          <mxGeometry x="640" y="320" width="40" height="40" as="geometry" />
        </mxCell>
        <mxCell id="Bp--dliPpfu11ODIHcIK-40" value="&lt;font style=&quot;font-size: 14px&quot;&gt;Null&lt;/font&gt;" style="text;html=1;fillColor=none;align=center;verticalAlign=middle;whiteSpace=wrap;strokeColor=#000000;dashed=1;" vertex="1" parent="1">
          <mxGeometry x="20" y="330" width="40" height="20" as="geometry" />
        </mxCell>
        <mxCell id="Bp--dliPpfu11ODIHcIK-48" value="&lt;font style=&quot;font-size: 14px&quot;&gt;Null&lt;/font&gt;" style="text;html=1;fillColor=none;align=center;verticalAlign=middle;whiteSpace=wrap;strokeColor=#000000;dashed=1;" vertex="1" parent="1">
          <mxGeometry x="720" y="330" width="40" height="20" as="geometry" />
        </mxCell>
        <mxCell id="Bp--dliPpfu11ODIHcIK-63" style="edgeStyle=orthogonalEdgeStyle;rounded=0;orthogonalLoop=1;jettySize=auto;html=1;exitX=0.5;exitY=1;exitDx=0;exitDy=0;entryX=0.448;entryY=-0.014;entryDx=0;entryDy=0;entryPerimeter=0;" edge="1" parent="1" source="Bp--dliPpfu11ODIHcIK-52" target="Bp--dliPpfu11ODIHcIK-62">
          <mxGeometry relative="1" as="geometry" />
        </mxCell>
        <mxCell id="Bp--dliPpfu11ODIHcIK-52" value="&lt;span style=&quot;font-size: 16px&quot;&gt;First&lt;/span&gt;" style="text;html=1;fillColor=none;align=center;verticalAlign=middle;whiteSpace=wrap;strokeColor=#000000;dashed=1;strokeWidth=2;" vertex="1" parent="1">
          <mxGeometry x="110" y="250" width="50" height="30" as="geometry" />
        </mxCell>
        <mxCell id="Bp--dliPpfu11ODIHcIK-55" value="" style="rounded=0;whiteSpace=wrap;html=1;shadow=0;dashed=1;strokeColor=#000000;strokeWidth=1;fillColor=none;" vertex="1" parent="1">
          <mxGeometry y="20" width="780" height="380" as="geometry" />
        </mxCell>
        <mxCell id="Bp--dliPpfu11ODIHcIK-59" style="edgeStyle=orthogonalEdgeStyle;rounded=0;orthogonalLoop=1;jettySize=auto;html=1;exitX=0.5;exitY=1;exitDx=0;exitDy=0;entryX=1;entryY=0;entryDx=0;entryDy=0;" edge="1" parent="1" source="Bp--dliPpfu11ODIHcIK-57" target="Bp--dliPpfu11ODIHcIK-12">
          <mxGeometry relative="1" as="geometry" />
        </mxCell>
        <mxCell id="Bp--dliPpfu11ODIHcIK-57" value="&lt;font style=&quot;font-size: 16px&quot;&gt;Last&lt;/font&gt;" style="text;html=1;fillColor=none;align=center;verticalAlign=middle;whiteSpace=wrap;strokeColor=#000000;dashed=1;strokeWidth=2;" vertex="1" parent="1">
          <mxGeometry x="600" y="60" width="50" height="30" as="geometry" />
        </mxCell>
        <mxCell id="Bp--dliPpfu11ODIHcIK-65" style="edgeStyle=orthogonalEdgeStyle;rounded=0;orthogonalLoop=1;jettySize=auto;html=1;exitX=0.5;exitY=1;exitDx=0;exitDy=0;entryX=0.5;entryY=0;entryDx=0;entryDy=0;" edge="1" parent="1" source="Bp--dliPpfu11ODIHcIK-60" target="Bp--dliPpfu11ODIHcIK-64">
          <mxGeometry relative="1" as="geometry" />
        </mxCell>
        <mxCell id="Bp--dliPpfu11ODIHcIK-60" value="&lt;span style=&quot;font-size: 16px&quot;&gt;Last&lt;/span&gt;" style="text;html=1;fillColor=none;align=center;verticalAlign=middle;whiteSpace=wrap;strokeColor=#000000;dashed=1;strokeWidth=2;" vertex="1" parent="1">
          <mxGeometry x="595" y="250" width="50" height="30" as="geometry" />
        </mxCell>
        <mxCell id="Bp--dliPpfu11ODIHcIK-62" value="" style="rounded=1;whiteSpace=wrap;html=1;shadow=0;dashed=1;strokeWidth=2;fillColor=none;strokeColor=#66B2FF;" vertex="1" parent="1">
          <mxGeometry x="72.5" y="305" width="135" height="70" as="geometry" />
        </mxCell>
        <mxCell id="Bp--dliPpfu11ODIHcIK-64" value="" style="rounded=1;whiteSpace=wrap;html=1;shadow=0;dashed=1;strokeWidth=2;fillColor=none;strokeColor=#66B2FF;" vertex="1" parent="1">
          <mxGeometry x="552.5" y="305" width="135" height="70" as="geometry" />
        </mxCell>
      </root>
    </mxGraphModel>
  </diagram>
</mxfile>
